#!OML:ASF Y:\EmotionMaleHayes\Project 1\Capture day 1\Session 1\Male1.ASF
:FULLY-SPECIFIED
:DEGREES
354
root 30.7941 17.0386 0.193879 667.832 76.3972 671.257
lowerback 10.6419 4.19071 10.0108
upperback 2.83115 6.85227 2.42158
thorax -2.10149 3.45877 -3.83272
lowerneck -24.0357 1.15791 6.77285
upperneck 27.6206 0.443868 -3.65455
head 13.3429 0.512778 -2.47917
rclavicle 6.06293e-015 -5.84427e-014
rhumerus -34.3812 38.3355 -91.6268
rradius 84.422
rwrist -0.592161
rhand -13.7261 -20.5133
rfingers 7.12502
rthumb 12.3932 -50.1259
lclavicle 6.06293e-015 -5.84427e-014
lhumerus -59.5444 -16.94 90.1631
lradius 29.3103
lwrist -13.1769
lhand -1.80288 -18.2699
lfingers 7.12502
lthumb 23.8624 10.2678
rfemur 18.1345 -3.93915 26.0417
rtibia 4.91253
rfoot -16.9252 11.6881
rtoes -1.09317
lfemur -23.4571 13.3714 -2.10469
ltibia 31.9784
lfoot -11.1508 8.21001
ltoes 0.433386
355
root 31.0451 16.964 0.190731 667.895 76.0468 671.252
lowerback 10.3828 4.28242 10.2556
upperback 2.70563 6.96412 2.28332
thorax -2.02822 3.51132 -4.09805
lowerneck -23.7282 1.21055 6.82713
upperneck 27.5116 0.458161 -3.448
head 13.2368 0.555199 -2.39919
rclavicle 2.98922e-014 3.95581e-014
rhumerus -33.8962 39.9908 -91.3576
rradius 86.8654
rwrist -2.68218
rhand -14.2304 -20.8869
rfingers 7.12502
rthumb 11.907 -50.5284
lclavicle 2.98922e-014 3.95581e-014
lhumerus -61.795 -17.2416 90.1128
lradius 30.2528
lwrist -11.0491
lhand -1.80616 -18.3067
lfingers 7.12502
lthumb 23.8593 10.2314
rfemur 18.9359 -3.86911 26.1117
rtibia 5.09492
rfoot -18.2002 12.1847
rtoes -2.56323
lfemur -23.5063 13.5249 -1.56438
ltibia 28.1122
lfoot -11.2036 8.83812
ltoes 2.11341
356
root 31.2959 16.8767 0.188862 668.368 75.3696 671.536
lowerback 10.0273 4.45636 10.6529
upperback 2.54314 7.19205 2.20448
thorax -1.91098 3.62231 -4.3834
lowerneck -23.444 1.40317 7.37069
upperneck 27.5859 0.698156 -3.87911
head 13.2289 0.664588 -2.61785
rclavicle 1.46355e-014 2.50469e-014
rhumerus -33.4579 41.4761 -90.9976
rradius 89.2709
rwrist -5.30967
rhand -15.1226 -20.9844
rfingers 7.12502
rthumb 11.0465 -50.6737
lclavicle 1.46355e-014 2.50469e-014
lhumerus -64.0513 -17.4803 90.0859
lradius 31.2112
lwrist -8.97278
lhand -2.0465 -18.17
lfingers 7.12502
lthumb 23.6288 10.3981
rfemur 19.5714 -3.81568 26.3621
rtibia 5.29127
rfoot -19.3217 12.9093
rtoes -3.60971
lfemur -23.4683 13.6791 -0.639213
ltibia 24.1134
lfoot -11.5795 9.42586
ltoes 5.17557
357
root 31.5452 16.7889 0.190294 669.15 74.7075 672.207
lowerback 9.67842 4.65046 10.8964
upperback 2.50835 7.42473 2.16074
thorax -1.68272 3.74813 -4.53915
lowerneck -23.188 1.36296 7.53592
upperneck 27.5317 0.667788 -4.08457
head 13.1524 0.641989 -2.72938
rclavicle -2.0773e-014 8.34896e-015
rhumerus -32.5191 42.8524 -90.126
rradius 91.4385
rwrist -7.8719
rhand -15.4887 -21.0126
rfingers 7.12502
rthumb 10.6933 -50.7205
lclavicle -2.0773e-014 8.34896e-015
lhumerus -66.1001 -17.6069 90.1018
lradius 32.1764
lwrist -6.77803
lhand -2.12612 -17.9495
lfingers 7.12502
lthumb 23.5524 10.6284
rfemur 20.2631 -3.48531 26.6577
rtibia 5.50036
rfoot -20.374 13.1862
rtoes -4.00979
lfemur -23.1216 13.2772 0.448042
ltibia 19.8276
lfoot -11.2919 10.2408
ltoes 3.57037
358
root 31.7974 16.6982 0.195064 670.196 74.1094 673.198
lowerback 9.32908 4.8639 10.9868
upperback 2.54259 7.6617 2.09767
thorax -1.39578 3.88268 -4.62505
lowerneck -23.1175 1.28684 7.36521
upperneck 27.3447 0.50648 -3.72931
head 13.0492 0.597081 -2.5845
rclavicle -1.73937e-015 2.78299e-014
rhumerus -31.1927 44.0027 -88.9048
rradius 93.4038
rwrist -10.2263
rhand -15.4335 -21.197
rfingers 7.12502
rthumb 10.7466 -50.9021
lclavicle -1.73937e-015 2.78299e-014
lhumerus -67.9141 -17.5816 89.9289
lradius 33.1024
lwrist -4.71384
lhand -2.02622 -17.8016
lfingers 7.12502
lthumb 23.6482 10.7639
rfemur 20.971 -2.9053 26.9474
rtibia 5.88073
rfoot -21.5019 13.1408
rtoes -3.61523
lfemur -22.5487 12.0567 1.69885
ltibia 15.397
lfoot -11.8553 11.5581
ltoes 5.03136
359
root 32.0503 16.6012 0.199114 670.046 73.2493 672.919
lowerback 8.91986 4.9946 11.493
upperback 2.56817 7.82516 2.14716
thorax -1.05498 3.98582 -4.80219
lowerneck -22.8827 1.46722 7.55708
upperneck 27.1165 0.72403 -3.78292
head 12.9251 0.700204 -2.59379
rclavicle -2.98177e-014 -9.54166e-015
rhumerus -29.8481 44.8266 -87.6359
rradius 95.2969
rwrist -12.0354
rhand -15.315 -21.4448
rfingers 7.12502
rthumb 10.8609 -51.1439
lclavicle -2.98177e-014 -9.54166e-015
lhumerus -69.5961 -17.3484 89.5636
lradius 34.0563
lwrist -3.07016
lhand -2.05999 -17.5931
lfingers 7.12502
lthumb 23.6159 10.9766
rfemur 21.6101 -2.51927 27.6812
rtibia 6.37242
rfoot -22.7139 13.1202
rtoes -3.50813
lfemur -22.0312 10.0089 3.68676
ltibia 11.0908
lfoot -12.2373 13.4165
ltoes 6.12599
